#!OML:ASF I:\Actors\actors\Patient Classification 2\Patient 1\Session 1\actor1.ASF
:FULLY-SPECIFIED
:DEGREES
443
root -0.582788 18.9272 5.55603 11.147 3.23741 -2.76478
lowerback 20.9597 -0.500211 5.15487
upperback 6.80615 0.487056 1.58034
thorax -4.27217 0.25066 -1.35676
lowerneck -19.4328 -2.18196 -1.04494
upperneck 21.7127 -3.30794 2.35849
head 10.2064 -1.3145 0.535019
rclavicle 9.93923e-015 2.66371e-014
rhumerus -28.9306 44.9049 -107.854
rradius 135.999
rwrist 4.04581
rhand -35.309 -23.247
rfingers 7.12502
rthumb -8.44295 -53.0582
lclavicle 9.93923e-015 2.66371e-014
lhumerus -25.1832 -56.5708 113.129
lradius 129.349
lwrist 18.8446
lhand -17.8754 -41.5314
lfingers 7.12502
lthumb 8.39056 -11.718
rfemur -3.73378 -3.30696 17.1961
rtibia -1.43125e-014
rfoot -14.9543 -12.7562
rtoes -4.06986
lfemur -20.77 -2.53991 -10.7857
ltibia 25.2724
lfoot -15.6005 5.922
ltoes -56.8737
444
root -0.500315 18.9267 5.56082 11.1877 3.06755 -2.63379
lowerback 20.9841 -0.333617 4.87587
upperback 6.78536 0.645778 1.54048
thorax -4.30264 0.326037 -1.27964
lowerneck -19.3687 -2.23752 -1.04429
upperneck 21.7254 -3.37582 2.32046
head 10.1995 -1.35037 0.512291
rclavicle -1.82882e-014 -3.57812e-014
rhumerus -30.7468 45.9716 -109.482
rradius 135.711
rwrist 4.81151
rhand -35.92 -22.6257
rfingers 7.12502
rthumb -9.03266 -52.4123
lclavicle -1.82882e-014 -3.57812e-014
lhumerus -23.2433 -55.7552 111.486
lradius 129.419
lwrist 18.7105
lhand -18.6699 -41.5392
lfingers 7.12502
lthumb 7.62373 -11.6966
rfemur -3.74692 -3.21786 16.767
rtibia 1.74931e-014
rfoot -14.9569 -12.8751
rtoes -4.42686
lfemur -20.8781 -1.82936 -11.3239
ltibia 25.4766
lfoot -15.4939 5.41447
ltoes -56.8332
445
root -0.417427 18.9263 5.56815 11.171 2.89421 -2.52019
lowerback 21.2067 -0.225715 4.80983
upperback 6.68841 0.776829 1.34302
thorax -4.51259 0.384842 -1.48756
lowerneck -19.3593 -2.29771 -0.913191
upperneck 21.8776 -3.51766 2.37351
head 10.2542 -1.39598 0.488769
rclavicle -1.11319e-014 5.1684e-015
rhumerus -33.0002 46.8844 -111.731
rradius 135.367
rwrist 5.39225
rhand -36.0322 -21.969
rfingers 7.12502
rthumb -9.14084 -51.7509
lclavicle -1.11319e-014 5.1684e-015
lhumerus -21.5467 -54.6932 109.795
lradius 129.616
lwrist 18.7967
lhand -19.3171 -41.9541
lfingers 7.12502
lthumb 6.99903 -12.0899
rfemur -3.69296 -3.12029 16.3377
rtibia 1.90833e-014
rfoot -14.9522 -12.9208
rtoes -4.54842
lfemur -20.8947 -1.30932 -11.8296
ltibia 25.6631
lfoot -15.4876 5.04501
ltoes -56.7877
446
root -0.332825 18.925 5.57785 11.1347 2.72134 -2.43619
lowerback 21.1763 -0.0938266 4.51272
upperback 6.76627 0.883235 1.37322
thorax -4.41379 0.438594 -1.31173
lowerneck -19.4168 -2.31984 -0.947544
upperneck 21.9196 -3.51096 2.26573
head 10.2782 -1.40774 0.456658
rclavicle 2.00773e-014 1.70955e-014
rhumerus -35.0643 47.9956 -113.573
rradius 135.042
rwrist 5.76985
rhand -35.9629 -22.0385
rfingers 7.12502
rthumb -9.07401 -51.8233
lclavicle 2.00773e-014 1.70955e-014
lhumerus -19.6086 -53.4078 108.296
lradius 129.903
lwrist 19.2691
lhand -19.7866 -41.9967
lfingers 7.12502
lthumb 6.54582 -12.1179
rfemur -3.61801 -3.01763 15.9211
rtibia 2.38542e-015
rfoot -15.0806 -12.8574
rtoes -3.93126
lfemur -20.87 -1.06472 -12.2742
ltibia 25.8401
lfoot -15.608 4.87625
ltoes -56.6915
447
root -0.249338 18.9228 5.58839 11.0898 2.5203 -2.37407
lowerback 21.192 -0.0042061 4.18253
upperback 6.8212 0.933734 1.43057
thorax -4.36839 0.462905 -1.07498
lowerneck -19.5475 -2.26145 -1.01837
upperneck 22.0546 -3.38278 2.15573
head 10.3481 -1.3659 0.446502
rclavicle -3.77691e-015 -1.98785e-015
rhumerus -37.1171 48.9793 -115.35
rradius 134.729
rwrist 6.29325
rhand -35.6949 -21.9152
rfingers 7.12502
rthumb -8.81539 -51.7111
lclavicle -3.77691e-015 -1.98785e-015
lhumerus -18.371 -52.3563 107.406
lradius 130.276
lwrist 20.0228
lhand -20.2712 -41.8071
lfingers 7.12502
lthumb 6.078 -11.9143
rfemur -3.5332 -2.88073 15.5285
rtibia -3.18055e-015
rfoot -15.2344 -12.795
rtoes -3.38323
lfemur -20.8285 -0.855518 -12.6899
ltibia 26.0199
lfoot -15.7788 4.76124
ltoes -56.6054
448
root -0.167961 18.9207 5.59838 11.0271 2.30798 -2.32967
lowerback 21.3795 0.0374175 3.8277
upperback 6.77196 0.929199 1.47893
thorax -4.52672 0.455304 -0.822737
lowerneck -19.6138 -2.1641 -1.03176
upperneck 22.2476 -3.22176 2.05353
head 10.4258 -1.30366 0.434967
rclavicle 7.15625e-015 9.54166e-015
rhumerus -38.8119 49.5439 -116.764
rradius 134.413
rwrist 7.36395
rhand -36.5614 -21.2231
rfingers 7.12502
rthumb -9.65151 -50.982
lclavicle 7.15625e-015 9.54166e-015
lhumerus -18.2644 -51.839 107.261
lradius 130.566
lwrist 20.4336
lhand -20.9149 -41.8787
lfingers 7.12502
lthumb 5.45649 -11.9689
rfemur -3.42746 -2.72538 15.1633
rtibia -1.11319e-014
rfoot -15.3078 -12.7771
rtoes -3.4113
lfemur -20.7688 -0.599502 -13.0821
ltibia 26.1971
lfoot -15.9484 4.60442
ltoes -56.466
